<?xml version="1.0" standalone="no"?>
<!DOCTYPE svg PUBLIC "-//W3C//DTD SVG 20010904//EN"
 "http://www.w3.org/TR/2001/REC-SVG-20010904/DTD/svg10.dtd">
<svg version="1.0" xmlns="http://www.w3.org/2000/svg"
 width="510.000000pt" height="503.000000pt" viewBox="0 0 510.000000 503.000000"
 preserveAspectRatio="xMidYMid meet">

<g transform="translate(0.000000,503.000000) scale(0.100000,-0.100000)"
fill="#000000" stroke="none">
<path d="M2080 4508 c-30 -62 -141 -291 -248 -508 -107 -217 -225 -458 -262
-535 -37 -77 -138 -284 -225 -460 -87 -176 -201 -410 -255 -520 -118 -242
-289 -590 -480 -980 -78 -159 -182 -371 -230 -470 -48 -99 -124 -253 -169
-343 -44 -90 -81 -166 -81 -168 0 -2 266 -3 592 -2 l591 3 83 165 c46 91 83
168 83 173 1 4 -183 7 -408 7 l-409 0 110 223 c61 122 139 281 173 352 62 128
198 405 495 1010 84 171 181 369 215 440 34 72 151 310 260 530 108 220 201
410 206 423 5 12 12 22 17 22 5 0 36 -57 70 -127 33 -71 154 -317 267 -548
114 -231 229 -465 255 -520 26 -55 130 -266 230 -470 100 -203 211 -428 245
-500 35 -71 149 -305 254 -520 106 -214 222 -452 258 -527 l66 -138 564 0
c309 0 563 2 563 4 0 2 -91 187 -201 412 -111 225 -229 468 -264 539 -34 72
-140 288 -235 480 -95 193 -210 427 -255 520 -45 94 -153 314 -240 490 -87
176 -181 370 -210 430 -29 61 -150 308 -269 550 -120 242 -236 479 -258 528
-23 48 -44 87 -47 87 -3 0 -12 -15 -20 -32 -8 -18 -48 -100 -88 -183 l-75
-150 282 -575 c265 -539 334 -680 609 -1242 60 -123 177 -362 261 -533 84
-170 187 -382 230 -470 43 -88 116 -238 163 -332 l86 -173 -200 0 -200 0 -191
388 c-105 213 -225 459 -268 547 -43 88 -148 304 -235 480 -87 176 -199 406
-250 510 -51 105 -157 321 -235 480 -78 160 -186 380 -240 490 -306 626 -419
855 -423 855 -2 0 -28 -51 -57 -112z"/>
<path d="M2187 3050 c-30 -63 -141 -290 -247 -505 -106 -214 -211 -430 -235
-480 -24 -49 -136 -279 -249 -509 -113 -230 -206 -422 -206 -427 0 -9 1973
-13 1983 -3 3 3 -32 82 -79 175 l-84 169 -645 2 -645 3 320 653 c176 359 320
657 320 661 0 4 -40 91 -89 192 l-89 184 -55 -115z"/>
</g>
</svg>
